<svg id="Layer_1" enable-background="new 0 0 256 256" height="512" viewBox="0 0 256 256" width="512" xmlns="http://www.w3.org/2000/svg"><path d="m202.737 75.973-53.691 115.141c-1.779 3.815-6.314 5.466-10.13 3.687l-57.57-26.845c-3.815-1.779-5.466-6.314-3.687-10.13l53.691-115.141c1.779-3.815 6.314-5.466 10.13-3.687l57.57 26.845c3.816 1.779 5.467 6.315 3.687 10.13z" fill="#6bdddd"/><circle cx="140.198" cy="116.899" fill="#e0ebfc" r="28.394"/><path d="m154.196 125.654c-2.486 3.745-6.342 5.5-10.572 3.93-.441-.164-.642-.677-.443-1.103l1.486-3.187c.17-.364.578-.541.966-.434 1.531.42 2.97.227 4.131-.734.463-.384.378-1.118-.167-1.372l-7.698-3.59c-.33-.154-.721-.069-.959.207-2.713 3.144-5.809 6.291-11.466 3.653-4.507-2.101-6.285-6.541-4.934-11.205.11-.381-.077-.786-.437-.953l-2.071-.966c-.407-.19-.582-.673-.393-1.079l.458-.982c.19-.407.673-.582 1.079-.393l2.026.945c.36.168.792.053 1.011-.277 2.315-3.487 5.861-4.991 10.148-3.697.471.142.704.676.496 1.122l-1.472 3.157c-.164.353-.553.528-.933.444-1.169-.258-2.411-.1-3.459.549-.555.344-.52 1.161.072 1.437l7.403 3.452c.333.155.728.067.965-.213 2.67-3.158 5.712-6.282 11.365-3.646 3.917 1.827 6.52 6.169 5.076 11.226-.109.381.077.785.437.953l2.072.966c.407.19.582.673.393 1.079l-.458.982c-.19.407-.673.582-1.079.393l-2.028-.945c-.362-.171-.795-.052-1.015.281zm-18.124-9.208-6.474-3.019c-.498-.232-1.096.085-1.15.632-.179 1.811.663 3.462 2.815 4.466 1.992.929 3.556.435 4.97-.704.47-.379.386-1.119-.161-1.375zm8.224.847 6.465 3.015c.535.249 1.143-.137 1.158-.727.051-1.941-1.067-3.552-2.895-4.404-1.96-.914-3.491-.402-4.894.745-.465.381-.379 1.117.166 1.371z" fill="#4671c6"/><path d="m142.132 197.521c-1.386 0-2.767-.304-4.061-.907l-57.57-26.846c-4.808-2.242-6.896-7.979-4.654-12.787l53.691-115.142c1.086-2.329 3.015-4.096 5.43-4.975 2.415-.88 5.028-.766 7.358.321l57.569 26.845c2.33 1.086 4.097 3.015 4.976 5.43s.765 5.028-.321 7.358l-53.69 115.141c-1.086 2.329-3.015 4.096-5.43 4.976-1.075.39-2.188.586-3.298.586zm-3.87-157.241c-.648 0-1.299.114-1.926.343-1.411.514-2.538 1.546-3.173 2.907l-53.691 115.141c-1.31 2.81-.089 6.161 2.721 7.472l57.57 26.846c1.36.635 2.888.702 4.299.188s2.538-1.547 3.173-2.908l53.69-115.141c1.311-2.81.091-6.161-2.72-7.472l-57.57-26.845c-.756-.353-1.563-.531-2.373-.531z" fill="#3762cc"/><path d="m152.98 38.335-32.882 122.715c-1.09 4.066-5.269 6.48-9.336 5.39l-61.357-16.441c-4.066-1.09-6.48-5.269-5.39-9.336l32.882-122.714c1.09-4.066 5.269-6.48 9.336-5.39l61.357 16.441c4.066 1.089 6.479 5.269 5.39 9.335z" fill="#6bdddd"/><circle cx="98.498" cy="89.499" fill="#e0ebfc" r="28.394"/><path d="m113.802 95.69c-1.798 4.12-5.291 6.517-9.729 5.706-.462-.085-.75-.555-.628-1.009l.91-3.397c.104-.388.476-.633.876-.596 1.58.148 2.965-.292 3.941-1.44.39-.458.178-1.167-.403-1.322l-8.204-2.198c-.352-.094-.722.057-.909.37-2.126 3.567-4.628 7.204-10.657 5.588-4.803-1.287-7.325-5.35-6.804-10.178.043-.395-.213-.76-.596-.863l-2.207-.591c-.433-.116-.69-.562-.574-.995l.281-1.047c.116-.433.562-.69.995-.574l2.16.579c.383.103.789-.085.948-.449 1.675-3.836 4.905-5.933 9.352-5.403.489.058.81.543.683 1.019l-.902 3.365c-.101.376-.453.616-.842.599-1.196-.051-2.392.32-3.311 1.141-.487.435-.31 1.234.32 1.403l7.889 2.114c.355.095.728-.06.913-.377 2.081-3.573 4.534-7.178 10.559-5.564 4.175 1.119 7.492 4.943 6.948 10.174-.041.394.213.76.596.863l2.209.592c.433.116.69.562.574.995l-.281 1.047c-.116.433-.562.69-.995.574l-2.161-.579c-.386-.105-.791.087-.951.453zm-19.447-5.92-6.9-1.849c-.531-.142-1.064.274-1.023.822.138 1.815 1.254 3.294 3.548 3.909 2.123.569 3.578-.189 4.772-1.556.398-.455.186-1.17-.397-1.326zm8.247-.594 6.891 1.846c.57.153 1.102-.334 1.014-.917-.287-1.921-1.667-3.313-3.616-3.835-2.089-.56-3.508.21-4.691 1.584-.392.456-.18 1.166.402 1.322z" fill="#4671c6"/><path d="m112.733 168.7c-.822 0-1.657-.106-2.488-.329l-61.357-16.44c-2.482-.665-4.558-2.258-5.843-4.483s-1.627-4.819-.961-7.302l32.881-122.714c1.373-5.127 6.659-8.178 11.785-6.805l61.357 16.44c2.482.665 4.558 2.258 5.843 4.483s1.627 4.819.961 7.302l-32.881 122.715c-1.15 4.294-5.049 7.133-9.297 7.133zm-28.482-154.403c-.975 0-1.937.255-2.803.756-1.301.751-2.231 1.963-2.62 3.414l-32.881 122.714c-.803 2.995.981 6.084 3.976 6.887l61.357 16.44c2.992.801 6.084-.981 6.887-3.976l32.881-122.715c.803-2.995-.981-6.084-3.976-6.887l-61.357-16.44c-.485-.13-.976-.193-1.464-.193z" fill="#3762cc"/><path d="m190.769 243.703h-144.408c-6.075 0-11-4.925-11-11v-127.192c0-6.075 4.925-11 11-11h144.409c10.3 0 18.649 8.349 18.649 18.649v111.894c-.001 10.299-8.35 18.649-18.65 18.649z" fill="#4671c6"/><path d="m190.77 245.703h-144.41c-7.168 0-13-5.832-13-13v-127.192c0-7.168 5.832-13 13-13h144.41c11.386 0 20.648 9.263 20.648 20.648v111.895c0 11.385-9.263 20.649-20.648 20.649zm-144.41-149.192c-4.963 0-9 4.037-9 9v127.192c0 4.963 4.037 9 9 9h144.41c9.18 0 16.648-7.469 16.648-16.649v-111.895c0-9.18-7.469-16.648-16.648-16.648z" fill="#3762cc"/><path d="m214.639 190.776h-43.5c-12.426 0-22.5-10.074-22.5-22.5 0-12.426 10.074-22.5 22.5-22.5h43.5c3.314 0 6 2.686 6 6v33c0 3.313-2.686 6-6 6z" fill="#f9a7a7"/><circle cx="173.559" cy="168.276" fill="#f9cfcf" r="14.764"/><path d="m214.64 192.775h-43.5c-13.51 0-24.5-10.99-24.5-24.5s10.99-24.5 24.5-24.5h43.5c4.411 0 8 3.589 8 8v33c0 4.412-3.589 8-8 8zm-43.5-45c-11.304 0-20.5 9.196-20.5 20.5s9.196 20.5 20.5 20.5h43.5c2.206 0 4-1.794 4-4v-33c0-2.206-1.794-4-4-4z" fill="#3762cc"/><g fill="#a4c9ff"><path d="m54.889 230.702h-7.5c-1.657 0-3-1.343-3-3s1.343-3 3-3h7.5c1.657 0 3 1.343 3 3s-1.342 3-3 3z"/><path d="m174.889 230.702h-15c-1.657 0-3-1.343-3-3s1.343-3 3-3h15c1.657 0 3 1.343 3 3s-1.342 3-3 3zm-30 0h-15c-1.657 0-3-1.343-3-3s1.343-3 3-3h15c1.657 0 3 1.343 3 3s-1.342 3-3 3zm-30 0h-15c-1.657 0-3-1.343-3-3s1.343-3 3-3h15c1.657 0 3 1.343 3 3s-1.342 3-3 3zm-30 0h-15c-1.657 0-3-1.343-3-3s1.343-3 3-3h15c1.657 0 3 1.343 3 3s-1.342 3-3 3z"/><path d="m197.389 230.702h-7.5c-1.657 0-3-1.343-3-3s1.343-3 3-3h7.5c1.657 0 3 1.343 3 3s-1.342 3-3 3z"/><path d="m54.889 113.511h-7.5c-1.657 0-3-1.343-3-3s1.343-3 3-3h7.5c1.657 0 3 1.343 3 3s-1.342 3-3 3z"/><path d="m174.889 113.511h-15c-1.657 0-3-1.343-3-3s1.343-3 3-3h15c1.657 0 3 1.343 3 3s-1.342 3-3 3zm-30 0h-15c-1.657 0-3-1.343-3-3s1.343-3 3-3h15c1.657 0 3 1.343 3 3s-1.342 3-3 3zm-30 0h-15c-1.657 0-3-1.343-3-3s1.343-3 3-3h15c1.657 0 3 1.343 3 3s-1.342 3-3 3zm-30 0h-15c-1.657 0-3-1.343-3-3s1.343-3 3-3h15c1.657 0 3 1.343 3 3s-1.342 3-3 3z"/><path d="m197.389 113.511h-7.5c-1.657 0-3-1.343-3-3s1.343-3 3-3h7.5c1.657 0 3 1.343 3 3s-1.342 3-3 3z"/></g></svg>